<?xml version="1.0" encoding="UTF-8" standalone="no"?>
<!-- Created with Inkscape (http://www.inkscape.org/) -->
<svg xmlns:dc="http://purl.org/dc/elements/1.1/" xmlns:cc="http://creativecommons.org/ns#" xmlns:rdf="http://www.w3.org/1999/02/22-rdf-syntax-ns#" xmlns:svg="http://www.w3.org/2000/svg" xmlns="http://www.w3.org/2000/svg" xmlns:sodipodi="http://sodipodi.sourceforge.net/DTD/sodipodi-0.dtd" xmlns:inkscape="http://www.inkscape.org/namespaces/inkscape" width="999.99994" height="261.47784" id="svg2" version="1.1" inkscape:version="0.48.5 r10040" sodipodi:docname="New document 1"><link xmlns="" type="text/css" id="dark-mode" rel="stylesheet" href=""/><style xmlns="" type="text/css" id="dark-mode-custom-style"/>
  <defs id="defs4"/>
  <sodipodi:namedview id="base" pagecolor="#ffffff" bordercolor="#666666" borderopacity="1.0" inkscape:pageopacity="0.0" inkscape:pageshadow="2" inkscape:zoom="0.39878337" inkscape:cx="502.11198" inkscape:cy="-140.87835" inkscape:document-units="px" inkscape:current-layer="layer1" showgrid="false" fit-margin-left="0.5" fit-margin-bottom="0.5" fit-margin-top="0.5" fit-margin-right="0.5" inkscape:window-width="1216" inkscape:window-height="1022" inkscape:window-x="698" inkscape:window-y="-12" inkscape:window-maximized="0"/>
  <metadata id="metadata7">
    <rdf:RDF>
      <cc:Work rdf:about="">
        <dc:format>image/svg+xml</dc:format>
        <dc:type rdf:resource="http://purl.org/dc/dcmitype/StillImage"/>
        <dc:title/>
      </cc:Work>
    </rdf:RDF>
  </metadata>
  <g inkscape:label="Layer 1" inkscape:groupmode="layer" id="layer1" transform="translate(-343.34936,-272.11077)">
    <path style="fill:#e44332" inkscape:connector-curvature="0" d="M 578.52956,272.62132 H 377.42332 c -18.45408,0 -33.53178,14.63454 -33.53178,32.53996 v 41.97275 l 0.0739,-0.0528 45.70789,25.79774 c 3.4608,1.94142 7.75514,1.92032 11.21594,0 2.90159,-1.58269 89.61151,-50.03389 90.90931,-50.75137 3.12316,-1.7515 6.489,-1.16063 8.35656,-0.10551 1.83592,1.05512 6.77389,3.77733 9.39059,5.2123 2.58505,1.44552 2.46898,5.44443 0.14772,6.75278 L 401.1636,394.65668 c -3.86174,2.163 -7.70239,2.21576 -11.71185,0.0211 -6.72113,-3.69292 -34.42863,-19.37203 -45.58127,-25.68166 v 22.02039 l 0.0844,-0.0422 45.70788,25.77663 c 3.4608,1.95197 7.75515,1.93087 11.21595,0 2.90159,-1.58269 89.61151,-50.03389 90.90931,-50.75137 3.12316,-1.74095 6.489,-1.16063 8.35656,-0.10551 1.83591,1.05512 6.77389,3.77733 9.39059,5.22285 2.58505,1.43497 2.46898,5.43388 0.14771,6.75278 L 401.15304,438.5392 c -3.86174,2.163 -7.70239,2.21576 -11.71185,0.0211 -6.72113,-3.69293 -34.42863,-19.37204 -45.58127,-25.67112 v 22.02039 l 0.0844,-0.0528 c 0,0 42.98567,24.2678 45.70788,25.78718 3.4608,1.94142 7.75515,1.92032 11.21595,0 2.90158,-1.58269 89.61151,-50.03388 90.90931,-50.75137 3.12316,-1.7515 6.489,-1.16063 8.35656,-0.10551 1.83591,1.05512 6.77388,3.77734 9.39059,5.2123 2.58505,1.43497 2.46898,5.43388 0.14771,6.75278 l -108.52984,60.66951 c -3.86175,2.163 -7.70239,2.21576 -11.71185,0.0211 -6.72113,-3.69293 -34.42863,-19.36149 -45.58127,-25.67112 V 500.517 c 0,17.91597 15.08824,32.57161 33.52122,32.57161 h 201.12735 c 18.43298,0 33.53177,-14.66619 33.53177,-32.57161 V 305.17183 c 0,-17.90542 -15.08824,-32.56106 -33.53177,-32.56106 m 204.78861,151.54716 c 0,-7.89231 1.41387,-15.04604 4.22049,-21.48228 2.81718,-6.43625 6.64727,-11.92288 11.46918,-16.50211 4.8008,-4.55813 10.51956,-8.08223 17.12463,-10.58287 6.61561,-2.49009 13.61107,-3.74568 21.06023,-3.74568 7.42806,0 14.45517,1.26614 21.04968,3.73513 6.59451,2.49009 12.30272,6.01419 17.12463,10.57232 4.82191,4.57923 8.652,10.06586 11.45863,16.50211 2.80662,6.43624 4.22048,13.58997 4.22048,21.48228 0,7.89231 -1.41386,15.04604 -4.22048,21.48228 -2.82773,6.43625 -6.64727,11.92288 -11.46918,16.50211 -4.82191,4.55813 -10.53012,8.09278 -17.13518,10.57232 -6.60506,2.50064 -13.63218,3.73513 -21.06023,3.73513 -7.43861,0 -14.45517,-1.23449 -21.06024,-3.73513 -6.60506,-2.47954 -12.32382,-6.01419 -17.12463,-10.57232 -4.8219,-4.57923 -8.652,-10.06586 -11.45862,-16.50211 -2.82773,-6.43624 -4.24159,-13.58997 -4.24159,-21.48228 m 24.76371,0 c 0,3.8723 0.65418,7.61798 1.96253,11.18429 1.3189,3.62962 3.23922,6.80554 5.80317,9.56996 2.53229,2.76442 5.59214,4.95907 9.17956,6.62616 3.58741,1.65654 7.63908,2.49009 12.17611,2.49009 4.53702,0 8.59924,-0.8441 12.18665,-2.49009 3.56632,-1.65654 6.62617,-3.86174 9.17957,-6.64727 2.53229,-2.74331 4.46316,-5.92978 5.77151,-9.54885 1.2978,-3.58741 1.95198,-7.32254 1.95198,-11.18429 0,-3.8723 -0.65418,-7.62853 -1.95198,-11.2265 -1.30835,-3.60852 -3.23922,-6.77388 -5.77151,-9.54885 -2.5534,-2.77497 -5.61325,-4.98018 -9.17957,-6.64727 -3.58741,-1.64599 -7.66018,-2.49009 -12.19721,-2.49009 -4.53702,0 -8.59924,0.8441 -12.1761,2.49009 -3.58742,1.65654 -6.64727,3.86175 -9.17956,6.64727 -2.56395,2.76442 -4.48427,5.92978 -5.80317,9.52775 -1.2978,3.58741 -1.95198,7.34365 -1.95198,11.20539 z m 177.60868,34.86123 h -0.42205 c -3.58742,6.0986 -8.37767,10.51956 -14.45517,13.29453 -6.0353,2.74332 -12.55595,4.13608 -19.59362,4.13608 -7.70239,0 -14.53958,-1.34 -20.53267,-4.04111 -5.98254,-2.70112 -11.11043,-6.4046 -15.37313,-11.11044 -4.27324,-4.69529 -7.51247,-10.23468 -9.70712,-16.60762 -2.21575,-6.33073 -3.29198,-13.18902 -3.29198,-20.53267 0,-7.3331 1.16063,-14.18084 3.50301,-20.55378 2.34237,-6.35183 5.59214,-11.89122 9.81263,-16.59706 4.18883,-4.68475 9.24287,-8.38822 15.15155,-11.07878 5.92979,-2.71167 12.39768,-4.06222 19.41424,-4.06222 4.68475,0 8.81027,0.48535 12.38714,1.44551 3.58741,0.98127 6.75278,2.21576 9.49609,3.75624 2.74332,1.51937 5.08569,3.14426 7.01656,4.85356 1.92033,1.7515 3.51356,3.4397 4.74805,5.09624 h 0.61197 V 332.1302 c 0,-2.49009 1.96253,-5.42333 5.40223,-5.42333 h 13.99094 c 3.2392,0 5.3811,2.74332 5.3811,5.42333 v 136.40616 c 0,3.4608 -2.9122,5.42333 -5.3811,5.42333 h -12.71424 c -3.01765,0 -5.40223,-2.56395 -5.40223,-5.41278 v -9.5383 z M 926.9836,424.13683 c 0,3.8723 0.67528,7.61798 1.98363,11.18429 1.30835,3.62962 3.22867,6.80554 5.77152,9.56996 2.55339,2.76442 5.61325,4.95907 9.17956,6.62616 3.58741,1.65654 7.66018,2.49009 12.19721,2.49009 4.53702,0 8.60979,-0.8441 12.18666,-2.49009 3.58741,-1.65654 6.64726,-3.86174 9.17956,-6.64727 2.53229,-2.74331 4.48426,-5.92978 5.80317,-9.54885 1.26614,-3.58741 1.93087,-7.32254 1.93087,-11.18429 0,-3.8723 -0.65418,-7.62853 -1.94142,-11.2265 -1.30836,-3.60852 -3.24978,-6.77388 -5.78207,-9.54885 -2.5534,-2.77497 -5.61325,-4.98018 -9.17956,-6.64727 -3.58742,-1.64599 -7.64964,-2.49009 -12.18666,-2.49009 -4.53703,0 -8.59925,0.8441 -12.17611,2.49009 -3.58741,1.65654 -6.64727,3.86175 -9.17956,6.64727 -2.55339,2.76442 -4.47372,5.92978 -5.78207,9.52775 -1.30835,3.58741 -1.97308,7.34365 -1.97308,11.20539 z m 98.3795,0 c 0,-7.89231 1.4139,-15.04604 4.2416,-21.48228 2.7961,-6.43625 6.6262,-11.92288 11.4481,-16.50211 4.8114,-4.55813 10.5301,-8.08223 17.1352,-10.58287 6.6156,-2.49009 13.6111,-3.74569 21.0602,-3.74569 7.4281,0 14.4552,1.26615 21.0497,3.73513 6.6051,2.49009 12.3238,6.0142 17.1352,10.57233 4.8219,4.57923 8.6309,10.06586 11.4481,16.5021 2.8277,6.43625 4.2416,13.58997 4.2416,21.48229 0,7.89231 -1.4139,15.04604 -4.2416,21.48228 -2.8172,6.43624 -6.6262,11.92288 -11.4587,16.50211 -4.8219,4.55812 -10.5512,8.09278 -17.1457,10.57232 -6.5945,2.50064 -13.6111,3.73513 -21.0497,3.73513 -7.4386,0 -14.4551,-1.23449 -21.0602,-3.73513 -6.6051,-2.47954 -12.3238,-6.0142 -17.1246,-10.57232 -4.8114,-4.57923 -8.652,-10.06587 -11.4376,-16.50211 -2.8277,-6.43624 -4.2416,-13.58997 -4.2416,-21.48228 z m 24.7638,0 c 0,3.8723 0.6647,7.61798 1.973,11.18429 1.3084,3.62962 3.2287,6.80554 5.7821,9.56996 2.5534,2.76442 5.6133,4.95907 9.1796,6.62616 3.5874,1.65654 7.6602,2.49009 12.1866,2.49009 4.5371,0 8.6098,-0.8441 12.1867,-2.49009 3.5874,-1.65654 6.6473,-3.86174 9.1795,-6.64727 2.5323,-2.74331 4.4738,-5.92978 5.7821,-9.54885 1.2978,-3.58741 1.952,-7.32254 1.952,-11.18429 0,-3.8723 -0.6542,-7.62853 -1.952,-11.2265 -1.3083,-3.60852 -3.2392,-6.77388 -5.7715,-9.54885 -2.5534,-2.77497 -5.6133,-4.98018 -9.1796,-6.64727 -3.5874,-1.64599 -7.6601,-2.49009 -12.1972,-2.49009 -4.537,0 -8.5992,0.8441 -12.1761,2.49009 -3.5874,1.65654 -6.6472,3.86175 -9.1795,6.64727 -2.564,2.76442 -4.4843,5.92978 -5.8032,9.52775 -1.2978,3.58741 -1.952,7.34365 -1.952,11.20539 z m 95.4885,-83.62897 c 0,-4.00946 1.4772,-7.49136 4.4315,-10.48791 2.9755,-2.97544 6.7211,-4.46316 11.2582,-4.46316 4.537,0 8.3671,1.41386 11.4586,4.25214 3.0915,2.84883 4.6425,6.39404 4.6425,10.68838 0,4.2838 -1.551,7.85011 -4.6425,10.68839 -3.0915,2.82773 -6.9216,4.24159 -11.4586,4.24159 -4.5371,0 -8.2827,-1.47717 -11.2582,-4.47372 -2.9543,-2.97544 -4.4315,-6.43624 -4.4315,-10.46681 z m 100.4265,60.51125 c -2.469,0 -4.2521,-1.87812 -4.6003,-2.69056 -2.1841,-5.08569 -6.9427,-6.54176 -13.9593,-6.54176 -3.3025,0 -5.149,0.81244 -8.3038,2.46899 -3.1654,1.65654 -4.7481,4.3471 -4.7481,8.09278 0,3.03875 1.2978,5.25451 3.904,6.64727 2.6167,1.37166 6.5207,2.56395 10.4985,3.52411 4.0094,0.97071 8.3038,1.96252 12.9041,3.01765 4.6425,1.02346 8.9263,2.6378 12.9147,4.7797 4.0095,2.13134 7.8818,5.06458 10.4985,8.79971 2.6167,3.73514 4.5159,8.86303 4.5159,15.35203 0,5.92978 -1.2662,10.95216 -3.8301,15.03549 -2.5323,4.09387 -5.8454,7.36475 -9.8971,9.86539 -4.0622,2.47953 -8.652,4.29434 -13.7376,5.38112 -5.0963,1.11843 -10.182,1.68819 -15.2782,1.66709 -10.6884,-0.0422 -19.2243,-2.49009 -25.2913,-6.20412 -5.3072,-3.27087 -11.8384,-9.49609 -13.6849,-19.98401 -0.3904,-2.38457 1.5827,-5.98254 5.3811,-5.98254 h 13.6849 c 2.6906,0 4.5054,1.96253 5.033,3.50301 1.762,4.87466 7.3436,8.54649 16.7764,8.54649 10.087,0 16.059,-4.00947 16.059,-9.36949 0,-3.4608 -1.8993,-6.62616 -4.5054,-8.2827 -2.6378,-1.6671 -6.5418,-3.01765 -10.509,-4.06222 -4.0095,-1.03402 -8.8841,-2.00474 -13.5056,-2.91214 -4.6109,-0.90741 -8.9052,-2.35292 -12.8725,-4.36821 -4.0094,-2.00473 -7.312,-4.79025 -9.9181,-8.38821 -2.6378,-3.58742 -3.9251,-8.57815 -3.9251,-14.94053 0,-5.53939 1.129,-10.3402 3.3975,-14.42352 2.2685,-4.08332 5.2756,-7.42806 8.9686,-10.06586 3.7245,-2.63781 7.9978,-4.55813 12.8197,-5.80317 4.8008,-1.26615 9.686,-1.87812 14.6451,-1.87812 9.2007,0 18.0109,3.27088 22.6007,6.73168 4.8008,3.61907 9.4539,9.01074 11.5219,15.44698 0.9074,3.08096 -1.3083,7.00601 -5.1701,7.00601 h -12.4082 z m 24.3311,-10.97327 V 379.7584 c 0,-2.45843 1.9309,-5.41278 5.3495,-5.41278 h 15.1093 V 349.0649 c 0,-2.71166 1.8254,-4.35765 3.2076,-4.95907 0.8124,-0.35874 8.1983,-3.58741 14.107,-6.19357 4.115,-1.68819 7.4597,1.7093 7.4597,5.00128 v 31.44264 h 21.8621 c 3.3764,0 5.3811,2.95434 5.3811,5.41277 v 10.31909 c 0,2.986 -2.6378,5.42333 -5.3811,5.42333 h -21.8516 v 43.59764 c 0,4.95907 -0.1371,8.86302 1.7515,11.73296 1.741,2.6378 4.2838,3.61906 9.3906,3.61906 1.4561,0 2.7644,-0.24267 3.8723,-0.63307 3.2287,-1.10788 5.6555,0.80189 6.4785,2.39513 1.6143,3.13371 3.4608,6.58396 4.748,9.05294 1.4244,2.71167 0.2849,6.18302 -2.3212,7.44916 -4.1889,2.04694 -9.992,3.71403 -17.9582,3.71403 -6.6051,0 -10.3402,-0.73858 -14.529,-2.1841 -4.1994,-1.44552 -8.1772,-4.53702 -10.5829,-7.49136 -2.4268,-2.97545 -3.6085,-6.96381 -4.5054,-11.39532 -0.9074,-4.41041 -1.1184,-9.78098 -1.1184,-15.61581 v -44.24126 h -15.0566 c -3.4608,0 -5.3811,-3.0071 -5.3811,-5.44443 z m -563.41398,0 V 379.7584 c 0,-2.45843 1.93088,-5.41278 5.36002,-5.41278 h 15.08825 V 349.0649 c 0,-2.71166 1.82536,-4.35765 3.20757,-4.95907 0.82299,-0.35874 8.20885,-3.58741 14.10698,-6.19357 4.11497,-1.68819 7.45971,1.7093 7.45971,5.00128 v 31.44264 h 21.87268 c 3.37639,0 5.38112,2.95434 5.38112,5.41277 v 10.31909 c 0,2.986 -2.65891,5.42333 -5.38112,5.42333 h -21.87268 v 43.59764 c 0,4.95907 -0.13717,8.86302 1.76205,11.73296 1.71985,2.6378 4.2627,3.61906 9.36949,3.61906 1.47717,0 2.77497,-0.24267 3.87229,-0.63307 3.23923,-1.10788 5.65546,0.80189 6.47845,2.39513 1.60379,3.13371 3.45025,6.58396 4.74805,9.05294 1.41386,2.71167 0.27433,6.18302 -2.32127,7.44916 -4.19938,2.04694 -10.00255,3.71403 -17.96872,3.71403 -6.60507,0 -10.3402,-0.73858 -14.51848,-2.1841 -4.18884,-1.44552 -8.1772,-4.53702 -10.57232,-7.49136 -2.42678,-2.97545 -3.61907,-6.96381 -4.51593,-11.39532 -0.9074,-4.41041 -1.11843,-9.78098 -1.11843,-15.61581 v -44.24126 h -15.05659 c -3.4608,0 -5.38112,-3.0071 -5.38112,-5.44443 z m 447.55108,83.9033 h 14.0014 c 2.9544,0 5.3812,-2.42678 5.3812,-5.41278 v -88.78851 c 0,-2.97544 -2.4268,-5.41278 -5.3812,-5.41278 h -14.0014 c -2.9544,0 -5.3811,2.42678 -5.3811,5.41278 v 88.77796 c 0,2.95434 2.4267,5.40222 5.3811,5.40222 z" id="path8"/>
  </g>
</svg>