<svg xmlns="http://www.w3.org/2000/svg" width="800" height="448">
  <defs>
    <clipPath id="a">
      <path d="M239.41 175.34a4 4 0 0 0-6.77-2.16L211.88 194l-16.34-31.11a4 4 0 0 0-7.08 0l-8.93 17-22.4-41.77a4 4 0 0 0-7.48 1.28L128 278l57.9 32.46a12 12 0 0 0 11.7 0L256 278z" fill="none"/>
    </clipPath>
    <linearGradient x1="152.9" y1="230.54" x2="144.9" y2="226.36" gradientUnits="userSpaceOnUse" id="b">
      <stop offset="0" stop-color="#a52714"/>
      <stop offset=".4" stop-color="#a52714" stop-opacity=".5"/>
      <stop offset=".8" stop-color="#a52714" stop-opacity="0"/>
    </linearGradient>
    <linearGradient x1="186.89" y1="218.91" x2="183.31" y2="215.33" gradientUnits="userSpaceOnUse" id="c">
      <stop offset="0" stop-color="#a52714" stop-opacity=".8"/>
      <stop offset=".5" stop-color="#a52714" stop-opacity=".21"/>
      <stop offset="1" stop-color="#a52714" stop-opacity="0"/>
    </linearGradient>
    <linearGradient x1="123.188" y1="168.281" x2="256.875" y2="301.968" gradientUnits="userSpaceOnUse" id="d">
      <stop offset="0" stop-color="#fff" stop-opacity=".1"/>
      <stop offset="1" stop-color="#fff" stop-opacity="0"/>
    </linearGradient>
  </defs>
  <g fill="none">
    <g clip-path="url(#a)">
      <path d="M128 278l21.66-138.61a4 4 0 0 1 7.48-1.27l22.4 41.78 8.93-17a4 4 0 0 1 7.08 0L256 278z" fill="#ffa000"/>
      <path d="M202 137l-106-9v192l32-42z" fill="url(#b)" opacity=".12"/>
      <path d="M202.83 224.01l-23.3-44.12L128 278z" fill="#f57c00"/>
      <path d="M96 128h192v192H96z" fill="url(#c)" opacity=".2"/>
      <path d="M256 278l-16.59-102.66a4 4 0 0 0-6.77-2.16L128 278l57.9 32.47a12 12 0 0 0 11.7 0z" fill="#ffca28"/>
      <path d="M239.41 175.34a4 4 0 0 0-6.77-2.16L211.88 194l-16.34-31.11a4 4 0 0 0-7.08 0l-8.93 17-22.4-41.77a4 4 0 0 0-7.48 1.28L128 278h-.08l.07.08.57.28L211.83 195l20.78-20.8a4 4 0 0 1 6.78 2.16l16.45 101.74.16-.1zM128.19 277.81l21.47-137.42a4 4 0 0 1 7.48-1.28l22.4 41.78 8.93-17a4 4 0 0 1 7.08 0l16 30.43z" fill-opacity=".2" fill="#fff"/>
      <path d="M197.6 309.49a12 12 0 0 1-11.7 0l-57.76-32.4-.14.91 57.9 32.46a12 12 0 0 0 11.7 0L256 278l-.15-.92z" fill="#a52714" opacity=".2"/>
      <path d="M239.41 175.34a4 4 0 0 0-6.77-2.16L211.88 194l-16.34-31.11a4 4 0 0 0-7.08 0l-8.93 17-22.4-41.77a4 4 0 0 0-7.48 1.28L128 278l57.9 32.46a12 12 0 0 0 11.7 0L256 278z" fill="url(#d)"/>
    </g>
    <circle cx="240" cy="272" r="40" fill="#fff"/>
    <path d="M261.34 283.514h-11.3V258.4a2.372 2.372 0 0 0-2.16-2.34 2.364 2.364 0 0 0-2.52 1.936l-8.92 17.874V258.4a2.374 2.374 0 0 0-1.976-2.366 2.36 2.36 0 0 0-2.624 1.6l-13.44 26.93a2.558 2.558 0 0 0-.4 1.352 2.376 2.376 0 0 0 1.794 2.334 2.354 2.354 0 0 0 2.666-1.224l9.24-18.54v17.47a2.374 2.374 0 0 0 1.812 2.26 2.352 2.352 0 0 0 2.628-1.19l9.16-18.36v17.23a2.37 2.37 0 0 0 2.36 2.34h13.66a2.392 2.392 0 0 0 2.162-2.39c0-1.24-.938-2.278-2.16-2.392l.02.06z" fill-opacity=".54" fill="#000"/>
    <path d="M347.77 272H336v-91.65h11.77l31.87 55.81h.52l31.87-55.81h11.77V272h-11.77v-54.4l.51-15.36h-.51l-28.67 50.3h-6.92l-28.67-50.3h-.51l.51 15.36zm145.92 0h-51.45v-91.65h11.77v80.39h39.68zm93.06-91.65h15.23v.51l-34.05 39.3 36.35 51.33v.51h-14.46L560 229.25l-14.08 16.25V272h-11.78v-91.65h11.78v47.23h.51zm35.84 13.19c-1.62 1.62-3.583 2.43-5.89 2.43-2.307 0-4.27-.81-5.89-2.43-1.62-1.627-2.43-3.59-2.43-5.89 0-2.307.81-4.27 2.43-5.89s3.583-2.43 5.89-2.43c2.307 0 4.27.81 5.89 2.43s2.43 3.583 2.43 5.89c0 2.3-.81 4.263-2.43 5.89zm0 15.74V272h-11.78v-62.72zm39.93 63.74c-6.567 0-11.58-1.747-15.04-5.24-3.453-3.5-5.18-8.45-5.18-14.85v-32.9h-11.01v-10.75h11.01v-19.2h11.78v19.2h15.36v10.75h-15.36v32c0 6.827 2.813 10.24 8.44 10.24 2.133 0 3.927-.34 5.38-1.02l4.1 10.11c-2.56 1.107-5.72 1.66-9.48 1.66zm-277.8 35.78c1.76 0 3.24.26 4.44.78l-1.92 4.74c-.64-.32-1.48-.48-2.52-.48-1.44 0-2.62.43-3.54 1.29-.92.86-1.38 2.11-1.38 3.75v3.72h7.68v5.04h-7.68V352h-5.52v-24.36h-5.52v-5.04h5.52v-3.9c0-3 .96-5.4 2.88-7.2 1.92-1.8 4.44-2.7 7.56-2.7zm8.52 17.31c2.84-2.98 6.46-4.47 10.86-4.47 4.4 0 8.02 1.49 10.86 4.47 2.84 2.98 4.26 6.71 4.26 11.19 0 4.48-1.42 8.21-4.26 11.19-2.84 2.98-6.46 4.47-10.86 4.47-4.4 0-8.02-1.49-10.86-4.47-2.84-2.98-4.26-6.71-4.26-11.19 0-4.48 1.42-8.21 4.26-11.19zm4.11 18.9c1.9 1.94 4.15 2.91 6.75 2.91 2.6 0 4.85-.97 6.75-2.91 1.9-1.94 2.85-4.51 2.85-7.71s-.95-5.77-2.85-7.71c-1.9-1.94-4.15-2.91-6.75-2.91-2.6 0-4.85.97-6.75 2.91-1.9 1.94-2.85 4.51-2.85 7.71s.95 5.77 2.85 7.71zm31.83-9.09V352h-5.52v-29.4h5.28v4.8h.24c.56-1.6 1.71-2.92 3.45-3.96 1.74-1.04 3.43-1.56 5.07-1.56 1.64 0 3.02.24 4.14.72l-2.1 5.16c-.72-.28-1.7-.42-2.94-.42-2 0-3.77.79-5.31 2.37-1.54 1.58-2.31 3.65-2.31 6.21zm35.94-2.34V352h-5.52v-42.96h25.08v5.28h-19.56v14.1h17.64v5.16zm29.94-18.36c-.76.76-1.68 1.14-2.76 1.14-1.08 0-2-.38-2.76-1.14-.76-.76-1.14-1.68-1.14-2.76 0-1.08.38-2 1.14-2.76.76-.76 1.68-1.14 2.76-1.14 1.08 0 2 .38 2.76 1.14.76.76 1.14 1.68 1.14 2.76 0 1.08-.38 2-1.14 2.76zm0 7.38V352h-5.52v-29.4zm12.12 13.32V352h-5.52v-29.4h5.28v4.8h.24c.56-1.6 1.71-2.92 3.45-3.96 1.74-1.04 3.43-1.56 5.07-1.56 1.64 0 3.02.24 4.14.72l-2.1 5.16c-.72-.28-1.7-.42-2.94-.42-2 0-3.77.79-5.31 2.37-1.54 1.58-2.31 3.65-2.31 6.21zm27.78 17.04c-4.44 0-8.05-1.48-10.83-4.44-2.78-2.96-4.17-6.7-4.17-11.22 0-4.28 1.35-7.96 4.05-11.04 2.7-3.08 6.15-4.62 10.35-4.62 4.36 0 7.85 1.42 10.47 4.26 2.62 2.84 3.93 6.64 3.93 11.4l-.06 1.02h-23.22c.16 2.96 1.15 5.3 2.97 7.02 1.82 1.72 3.95 2.58 6.39 2.58 3.96 0 6.64-1.68 8.04-5.04l4.92 2.04c-.96 2.28-2.54 4.19-4.74 5.73s-4.9 2.31-8.1 2.31zm-9.12-19.2h17.04c-.12-1.68-.89-3.28-2.31-4.8s-3.53-2.28-6.33-2.28c-2.04 0-3.81.64-5.31 1.92-1.5 1.28-2.53 3-3.09 5.16zm42.9 19.2c-2.24 0-4.25-.48-6.03-1.44-1.78-.96-3.11-2.16-3.99-3.6h-.24V352h-5.28v-42.96h5.52v13.56l-.24 4.08h.24c.88-1.44 2.21-2.64 3.99-3.6 1.78-.96 3.79-1.44 6.03-1.44 3.8 0 7.08 1.5 9.84 4.5s4.14 6.72 4.14 11.16-1.38 8.16-4.14 11.16-6.04 4.5-9.84 4.5zm-.9-5.04c2.56 0 4.76-.97 6.6-2.91 1.84-1.94 2.76-4.51 2.76-7.71s-.92-5.77-2.76-7.71c-1.84-1.94-4.04-2.91-6.6-2.91-2.6 0-4.81.96-6.63 2.88-1.82 1.92-2.73 4.5-2.73 7.74s.91 5.82 2.73 7.74c1.82 1.92 4.03 2.88 6.63 2.88zm28.92 5.04c-3.12 0-5.73-.9-7.83-2.7-2.1-1.8-3.15-4.18-3.15-7.14 0-3.2 1.24-5.71 3.72-7.53 2.48-1.82 5.54-2.73 9.18-2.73 3.24 0 5.9.6 7.98 1.8v-.84c0-2.16-.74-3.89-2.22-5.19-1.48-1.3-3.3-1.95-5.46-1.95-1.6 0-3.05.38-4.35 1.14-1.3.76-2.19 1.8-2.67 3.12l-5.04-2.16c.68-1.76 2.02-3.39 4.02-4.89 2-1.5 4.64-2.25 7.92-2.25 3.76 0 6.88 1.1 9.36 3.3 2.48 2.2 3.72 5.3 3.72 9.3V352h-5.28v-4.08h-.24c-2.2 3.36-5.42 5.04-9.66 5.04zm.9-5.04c2.28 0 4.35-.85 6.21-2.55 1.86-1.7 2.79-3.71 2.79-6.03-1.56-1.28-3.9-1.92-7.02-1.92-2.68 0-4.7.58-6.06 1.74-1.36 1.16-2.04 2.52-2.04 4.08 0 1.44.62 2.58 1.86 3.42 1.24.84 2.66 1.26 4.26 1.26zm30.54 5.04c-3.28 0-5.99-.8-8.13-2.4-2.14-1.6-3.71-3.6-4.71-6l4.92-2.04c1.56 3.68 4.22 5.52 7.98 5.52 1.72 0 3.13-.38 4.23-1.14 1.1-.76 1.65-1.76 1.65-3 0-1.92-1.34-3.22-4.02-3.9l-5.94-1.44c-1.88-.48-3.66-1.39-5.34-2.73-1.68-1.34-2.52-3.15-2.52-5.43 0-2.6 1.15-4.71 3.45-6.33 2.3-1.62 5.03-2.43 8.19-2.43 2.6 0 4.92.59 6.96 1.77 2.04 1.18 3.5 2.87 4.38 5.07l-4.8 1.98c-1.08-2.6-3.32-3.9-6.72-3.9-1.64 0-3.02.34-4.14 1.02-1.12.68-1.68 1.6-1.68 2.76 0 1.68 1.3 2.82 3.9 3.42l5.82 1.38c2.76.64 4.8 1.74 6.12 3.3 1.32 1.56 1.98 3.32 1.98 5.28 0 2.64-1.08 4.84-3.24 6.6-2.16 1.76-4.94 2.64-8.34 2.64zm30 0c-4.44 0-8.05-1.48-10.83-4.44-2.78-2.96-4.17-6.7-4.17-11.22 0-4.28 1.35-7.96 4.05-11.04 2.7-3.08 6.15-4.62 10.35-4.62 4.36 0 7.85 1.42 10.47 4.26 2.62 2.84 3.93 6.64 3.93 11.4l-.06 1.02h-23.22c.16 2.96 1.15 5.3 2.97 7.02 1.82 1.72 3.95 2.58 6.39 2.58 3.96 0 6.64-1.68 8.04-5.04l4.92 2.04c-.96 2.28-2.54 4.19-4.74 5.73s-4.9 2.31-8.1 2.31zm-9.12-19.2h17.04c-.12-1.68-.89-3.28-2.31-4.8s-3.53-2.28-6.33-2.28c-2.04 0-3.81.64-5.31 1.92-1.5 1.28-2.53 3-3.09 5.16z" fill="#fff"/>
  </g>
</svg>
